<svg width="54" height="56" viewBox="0 0 54 56" fill="none" xmlns="http://www.w3.org/2000/svg">
<path d="M46.5615 23.0507L48.0357 23.3893C48.7858 23.5608 49.4947 23.8783 50.122 24.3239C50.7492 24.7696 51.2825 25.3344 51.6913 25.9863C52.1001 26.6381 52.3764 27.3641 52.5044 28.1228C52.6324 28.8815 52.6096 29.658 52.4373 30.4079L51.4639 34.5768C51.2918 35.3301 50.9725 36.042 50.5244 36.6714C50.0762 37.3009 49.508 37.8356 48.8524 38.2446C48.1968 38.6537 47.4669 38.9291 46.7045 39.055C45.9421 39.181 45.1623 39.1549 44.41 38.9784L42.9992 38.6398M7.02455 23.0507L5.55029 23.3893C4.80021 23.5608 4.09127 23.8783 3.46401 24.3239C2.83676 24.7696 2.30349 25.3344 1.89469 25.9863C1.4859 26.6381 1.2096 27.3641 1.08159 28.1228C0.953585 28.8815 0.976382 29.658 1.14868 30.4079L2.08684 34.5768C2.25889 35.3301 2.57818 36.042 3.02636 36.6714C3.47454 37.3009 4.04275 37.8356 4.69832 38.2446C5.35388 38.6537 6.08386 38.9291 6.84625 39.055C7.60865 39.181 8.38842 39.1549 9.14071 38.9784L10.5515 38.6398M26.7754 54.5603C23.3589 54.5538 20.0431 53.4024 17.3579 51.29C14.6727 49.1777 12.773 46.2263 11.9623 42.9074L7.48305 24.5673C6.60963 21.0649 7.02264 17.3653 8.64693 14.1417C11.4685 8.66086 18.5223 4.9082 25.1177 4.9082H28.4895C35.0637 4.9082 42.1739 8.66086 44.9673 14.1417C46.5821 17.3659 46.9899 21.0615 46.1171 24.5603L41.6379 42.9003C40.8265 46.2287 38.92 49.1879 36.2246 51.3025C33.5292 53.4171 30.2013 54.5645 26.7754 54.5603Z" stroke="white" stroke-width="2" stroke-linecap="round" stroke-linejoin="round"/>
<path d="M31.6188 31.896C32.5812 31.0914 33.7904 30.6412 35.0447 30.6207C36.2989 30.6002 37.5223 31.0105 38.5104 31.7832M14.7812 31.896C15.7447 31.0908 16.9552 30.6404 18.2106 30.6199C19.4661 30.5993 20.6906 31.0099 21.6799 31.7832M45.9382 39.1262C43.822 44.8117 39.5121 47.2029 30.9064 47.1535" stroke="white" stroke-width="2" stroke-linecap="round" stroke-linejoin="round"/>
<path d="M28.648 44.8965H24.9447C23.6981 44.8965 22.6875 45.9071 22.6875 47.1537C22.6875 48.4004 23.6981 49.411 24.9447 49.411H28.648C29.8947 49.411 30.9052 48.4004 30.9052 47.1537C30.9052 45.9071 29.8947 44.8965 28.648 44.8965Z" stroke="white" stroke-width="2" stroke-linecap="round" stroke-linejoin="round"/>
<path d="M7.84375 26.0622C13.374 26.5489 17.6063 24.983 19.7225 17.3154C24.2158 24.9407 32.9626 27.5859 45.1164 28.9049" stroke="white" stroke-width="2" stroke-linecap="round" stroke-linejoin="round"/>
<path d="M4.69638 23.53C3.69152 19.5168 4.16216 15.2761 6.02251 11.5808C9.21791 5.30991 19.7987 1 27.3181 1C34.8375 1 44.3744 5.28875 47.5698 11.5808C49.4269 15.2669 49.8976 19.4977 48.8959 23.5018" stroke="white" stroke-width="2" stroke-linecap="round" stroke-linejoin="round"/>
</svg>
