<svg width="51" height="52" viewBox="0 0 51 52" fill="none" xmlns="http://www.w3.org/2000/svg">
<path d="M33.2304 28.1774C33.1893 27.7511 33.502 27.3727 33.9306 27.3315C34.3569 27.2903 34.7353 27.6031 34.7765 28.0316C34.8934 29.2526 37.036 29.8615 38.2437 28.8965C38.562 28.6405 38.7579 28.2965 38.7579 27.9314C38.7579 25.505 33.2138 27.632 33.2138 23.4959C33.2138 21.9721 34.5038 20.8579 35.9708 20.5741V19.7983C35.9708 19.3631 36.3147 19.0192 36.7822 19.0192V19.0225C37.2241 19.0292 37.568 19.3854 37.5547 19.8172L37.5391 20.5685C39.0161 20.8457 40.3151 21.9665 40.3151 23.497C40.3151 23.9255 39.9678 24.2761 39.5359 24.2761C39.1063 24.2761 38.7568 23.9255 38.7568 23.497C38.7568 22.2092 36.5329 21.538 35.2896 22.532C34.9713 22.788 34.772 23.1319 34.772 23.497C34.772 25.9235 40.3151 23.7964 40.3151 27.9326C40.3151 29.4597 39.0184 30.5794 37.5447 30.8577L37.5291 31.6301C37.5291 32.0587 37.1785 32.4093 36.7499 32.4093C36.3214 32.4093 35.9708 32.0587 35.9708 31.6301V30.8577C34.5995 30.5905 33.3651 29.5966 33.2304 28.1774ZM36.7666 16.9611C41.5651 16.9611 45.4585 20.8546 45.4585 25.6563C45.4585 30.4559 41.5651 34.3482 36.7666 34.3482C31.9649 34.3482 28.0747 30.4548 28.0747 25.6563C28.0747 20.8546 31.9649 16.9611 36.7666 16.9611ZM41.8121 20.6108C39.0262 17.8248 34.5082 17.8248 31.7222 20.6108C28.9363 23.3968 28.9363 27.9147 31.7222 30.7007C34.5082 33.4867 39.0262 33.4867 41.8121 30.7007C44.5981 27.9159 44.5981 23.3968 41.8121 20.6108ZM3.2557 30.231H6.93437C8.5216 30.231 9.8684 31.383 10.14 32.9191L18.7094 28.754C19.886 28.1863 21.1515 28.0594 22.3659 28.5959L24.9337 29.729V19.3041C21.1003 21.046 16.588 20.2035 13.6261 17.2405C9.68252 13.2969 9.68252 6.90126 13.6261 2.95768C17.573 -0.985894 23.9687 -0.985894 27.9122 2.95768C29.4739 4.51931 30.5279 6.59294 30.7995 8.90477L34.516 4.30783C35.7215 2.81855 37.8096 2.81855 39.0117 4.30783L39.1697 4.50039C43.77 -2.09673 49.0203 1.60754 48.436 6.00191C48.1933 7.80395 46.9812 9.70284 44.3622 10.9239L47.8294 15.2147C48.3469 15.8547 48.5963 16.6127 48.5963 17.4386V32.82C51.6694 33.5457 52.2059 37.3824 47.7693 39.6987L30.9464 48.4797C30.0438 48.9494 29.0854 49.0729 28.097 48.8425L16.1962 46.0599L10.1789 48.631C10.0532 50.3162 8.63624 51.6441 6.93215 51.6441H3.2557C1.46368 51.6441 0 50.1804 0 48.3884H0.00333926V33.4878H0C0 31.6925 1.46368 30.231 3.2557 30.231ZM10.1879 34.6232V46.9381L15.791 44.5428C15.9457 44.4704 16.1249 44.4448 16.3052 44.486L28.4521 47.3254C29.0899 47.4735 29.6542 47.4044 30.2285 47.105L47.0547 38.3241C48.5506 37.5416 49.2852 36.6334 49.4277 35.8509C49.5223 35.3177 49.3108 34.8602 48.85 34.5764C47.9418 34.0143 46.556 34.2803 45.5654 34.6621L31.828 39.9191C31.6577 39.9859 31.4651 39.9915 31.2826 39.9225L21.2495 36.2249C20.8454 36.0768 20.6406 35.6283 20.7886 35.2276C20.9333 34.8235 21.3819 34.6154 21.7859 34.7634L31.4852 38.3386C34.2422 36.6757 32.2265 34.6566 29.8134 33.5936L21.7425 30.0218C20.9478 29.6712 20.162 29.7825 19.3862 30.1576L10.1879 34.6232ZM6.93549 31.7871H3.2557C2.32185 31.7871 1.55829 32.554 1.55829 33.4878H1.55495V48.3895H1.55829C1.55829 49.32 2.32185 50.0869 3.2557 50.0869H6.93437C7.86489 50.0869 8.63179 49.32 8.63179 48.3895H8.63513V33.4878H8.63179C8.6329 32.554 7.86601 31.7871 6.93549 31.7871ZM26.4909 30.4202L30.4411 32.1655C32.2587 32.9703 34.1331 34.3649 34.3535 36.2204C34.398 36.5899 34.3758 36.955 34.2778 37.3157L45.0122 33.204C45.7379 32.9269 46.4191 32.7721 47.0413 32.7209V17.4408C47.0413 16.9644 46.9178 16.5571 46.6217 16.1909L39.3489 7.19288C39.1341 7.6036 38.9226 8.04215 38.7145 8.5152C40.9295 9.84642 41.3369 12.9864 39.5382 14.873C38.0077 16.4758 35.5245 16.4758 33.9973 14.873C32.4891 13.2958 32.4891 10.7558 33.9973 9.17524C34.8277 8.30706 36.0098 7.84736 37.2441 8.0043C37.5881 7.2285 37.9409 6.52727 38.2982 5.89394C38.011 5.5411 37.686 5.05803 37.3198 4.87437C36.9915 4.71298 36.5407 4.71298 36.2157 4.87437C36.042 4.96231 35.8818 5.0981 35.7293 5.28509L26.9138 16.192C26.6166 16.5582 26.4909 16.9644 26.4909 17.442V30.4202ZM39.1052 12.1683C38.3138 12.2284 37.5847 12.2406 36.7544 12.225C36.2279 12.215 35.8673 11.7008 36.0287 11.2088H36.0253C36.2179 10.6222 36.4171 10.0668 36.6153 9.53699C34.5995 9.67278 33.6868 12.2974 35.1227 13.8022C36.5463 15.2949 38.9917 14.3109 39.1052 12.1683ZM43.3515 9.67278C49.1316 7.26857 46.9612 1.37157 43.4906 2.66161C42.4588 3.04339 41.3135 3.99951 40.1804 5.75035L43.3515 9.67278ZM38.1112 9.9811C38.0233 10.2048 37.9376 10.4352 37.853 10.6723L38.7145 10.6378C38.5553 10.3818 38.3505 10.1581 38.1112 9.9811ZM24.9348 17.5666C24.9348 16.6639 25.1274 15.926 25.7017 15.2158L29.2891 10.7769L29.3147 10.1013C29.3147 5.38082 25.4902 1.55745 20.7708 1.55745C16.0537 1.55745 12.227 5.38193 12.227 10.1013C12.227 15.7935 17.6943 19.8729 23.1316 18.3146C23.7672 18.1309 24.3738 17.8794 24.9348 17.5666ZM15.7821 12.3642C15.6672 12.1931 15.6249 11.9834 15.6645 11.7811C15.7042 11.5788 15.8225 11.4006 15.9936 11.2856C16.1652 11.1715 16.3751 11.13 16.5772 11.1703C16.7794 11.2105 16.9573 11.3292 17.0721 11.5004C18.8675 14.1818 22.6719 14.1818 24.4707 11.5004C24.7077 11.1442 25.1897 11.0496 25.547 11.2856C25.9032 11.5249 25.9978 12.008 25.7618 12.3642C23.3476 15.9638 18.2019 15.9705 15.7821 12.3642ZM23.8407 7.23963C23.8407 6.80776 24.1879 6.46049 24.6198 6.46049C25.0483 6.46049 25.3989 6.80776 25.3989 7.23963V7.69376C25.3989 8.12563 25.0483 8.4729 24.6198 8.4729C24.1879 8.4729 23.8407 8.12563 23.8407 7.69376V7.23963ZM16.3564 7.23963C16.3564 6.80776 16.7037 6.46049 17.1356 6.46049C17.5641 6.46049 17.9147 6.80776 17.9147 7.23963V7.69376C17.9147 8.12563 17.5641 8.4729 17.1356 8.4729C16.7037 8.4729 16.3564 8.12563 16.3564 7.69376V7.23963Z" fill="white"/>
</svg>
