<svg width="47" height="64" viewBox="0 0 47 64" fill="none" xmlns="http://www.w3.org/2000/svg">
<path d="M44.0459 3.81573H33.8689V1.96941C33.8689 1.44709 33.6615 0.946163 33.2921 0.576827C32.9228 0.207491 32.4219 0 31.8995 0L15.1005 0C14.5781 0 14.0772 0.207491 13.7079 0.576827C13.3385 0.946163 13.131 1.44709 13.131 1.96941V3.81573H2.95412C2.17064 3.81573 1.41924 4.12697 0.86524 4.68097C0.311236 5.23498 0 5.98637 0 6.76985V60.067C0 60.8505 0.311236 61.6019 0.86524 62.1559C1.41924 62.7099 2.17064 63.0212 2.95412 63.0212H44.0459C44.8294 63.0212 45.5807 62.7099 46.1348 62.1559C46.6888 61.6019 47 60.8505 47 60.067V6.76985C47 5.98637 46.6888 5.23498 46.1348 4.68097C45.5807 4.12697 44.8294 3.81573 44.0459 3.81573ZM15.5928 1.96941H31.4072C31.5378 1.96941 31.663 2.02128 31.7553 2.11362C31.8477 2.20595 31.8995 2.33118 31.8995 2.46176V7.09973C31.8995 7.23031 31.8477 7.35554 31.7553 7.44787C31.663 7.54021 31.5378 7.59208 31.4072 7.59208H15.5928C15.4622 7.59208 15.337 7.54021 15.2447 7.44787C15.1523 7.35554 15.1005 7.23031 15.1005 7.09973V2.46176C15.1005 2.33118 15.1523 2.20595 15.2447 2.11362C15.337 2.02128 15.4622 1.96941 15.5928 1.96941ZM45.0306 60.067C45.0306 60.3282 44.9268 60.5787 44.7422 60.7633C44.5575 60.948 44.307 61.0517 44.0459 61.0517H2.95412C2.69296 61.0517 2.44249 60.948 2.25782 60.7633C2.07316 60.5787 1.96941 60.3282 1.96941 60.067V6.76985C1.96941 6.50869 2.07316 6.25823 2.25782 6.07356C2.44249 5.88889 2.69296 5.78514 2.95412 5.78514H13.131V7.59208C13.131 7.85071 13.182 8.1068 13.281 8.34574C13.3799 8.58468 13.525 8.80179 13.7079 8.98466C14.0772 9.354 14.5781 9.56149 15.1005 9.56149H31.8995C32.4219 9.56149 32.9228 9.354 33.2921 8.98466C33.6615 8.61533 33.8689 8.1144 33.8689 7.59208V5.78514H44.0459C44.307 5.78514 44.5575 5.88889 44.7422 6.07356C44.9268 6.25823 45.0306 6.50869 45.0306 6.76985V60.067Z" fill="white"/>
<path d="M38.882 23.8352L33.0132 21.6639L30.6647 17.9171C30.4179 17.5265 30.0763 17.2048 29.6717 16.9818C29.267 16.7588 28.8126 16.6419 28.3506 16.6419H15.2934C12.7922 16.4843 12.2457 19.9751 11.4777 21.6639H9.16361C8.74377 21.6637 8.32953 21.7602 7.95303 21.946C7.57654 22.1318 7.24792 22.4018 6.99267 22.7352C6.73743 23.0685 6.56243 23.4562 6.48125 23.8681C6.40008 24.28 6.41491 24.7051 6.52459 25.1103L7.76532 29.704C7.92223 30.2837 8.26576 30.7956 8.74278 31.1605C9.21981 31.5254 9.80376 31.7229 10.4043 31.7226C10.5148 32.7266 10.9919 33.6545 11.7442 34.3285C12.4965 35.0025 13.471 35.3753 14.481 35.3753C15.4911 35.3753 16.4656 35.0025 17.2178 34.3285C17.9701 33.6545 18.4472 32.7266 18.5577 31.7226H27.9666C28.518 36.5034 35.5586 36.5083 36.1101 31.7226C38.2124 31.8753 40.4379 31.5897 40.5413 28.9901C40.5363 27.2521 40.9745 24.5786 38.882 23.8352ZM28.9956 18.9609L30.6794 21.6639H18.863V18.6064H28.3506C28.4792 18.6067 28.6056 18.6394 28.7183 18.7013C28.831 18.7633 28.9263 18.8525 28.9956 18.9609ZM14.5844 19.0938C14.801 18.311 16.352 18.6901 16.9083 18.6014V21.6639H13.5948L14.5844 19.0938ZM14.4859 33.372C11.6943 33.372 11.714 29.123 14.4859 29.1132C17.2579 29.1033 17.2776 33.3573 14.4859 33.3819V33.372ZM32.0383 33.372C29.2516 33.372 29.2664 29.1279 32.0383 29.1132C34.8103 29.0984 34.8201 33.3573 32.0383 33.3819V33.372ZM38.5915 28.9704C38.6211 30.157 36.5236 29.6203 35.8491 29.7335C35.5475 28.9687 35.0228 28.3124 34.3432 27.8498C33.6635 27.3872 32.8604 27.1398 32.0383 27.1398C31.2162 27.1398 30.4131 27.3872 29.7335 27.8498C29.0538 28.3124 28.5291 28.9687 28.2275 29.7335H18.2967C17.1348 26.3511 11.842 26.356 10.6751 29.7335C10.4674 29.7793 10.2501 29.7475 10.0641 29.6441C9.87822 29.5407 9.73654 29.3729 9.66581 29.1723L8.43 24.5885C8.39414 24.4757 8.38608 24.356 8.4065 24.2394C8.42692 24.1229 8.47522 24.0131 8.54728 23.9192C8.61935 23.8254 8.71303 23.7504 8.82035 23.7006C8.92766 23.6508 9.04543 23.6277 9.16361 23.6333H32.6587L38.1484 25.6667C38.2813 25.7274 38.3938 25.8252 38.4725 25.9484C38.5511 26.0716 38.5924 26.2148 38.5915 26.3609V28.9704ZM12.0833 52.3473C11.8232 52.3475 11.5737 52.2449 11.389 52.0617L9.44917 50.1219C9.29485 49.9321 9.21668 49.6917 9.22988 49.4475C9.24308 49.2032 9.34671 48.9726 9.52058 48.8006C9.69445 48.6286 9.92613 48.5274 10.1705 48.5168C10.4149 48.5062 10.6544 48.5869 10.8425 48.7433L12.0833 49.984L15.8448 46.2224C16.0318 46.0524 16.2771 45.9607 16.5298 45.9665C16.7825 45.9723 17.0233 46.075 17.2024 46.2534C17.3814 46.4319 17.485 46.6723 17.4917 46.925C17.4984 47.1777 17.4076 47.4233 17.2382 47.6109L12.807 52.0716C12.7113 52.1641 12.5978 52.2362 12.4734 52.2836C12.349 52.331 12.2163 52.3527 12.0833 52.3473Z" fill="white"/>
<path d="M17.8915 42.9577C18.1527 42.9577 18.4031 43.0614 18.5878 43.2461C18.7725 43.4308 18.8762 43.6812 18.8762 43.9424V53.9815C18.8762 54.2426 18.7725 54.4931 18.5878 54.6778C18.4031 54.8624 18.1527 54.9662 17.8915 54.9662H7.98537C7.72421 54.9662 7.47374 54.8624 7.28908 54.6778C7.10441 54.4931 7.00066 54.2426 7.00066 53.9815V43.9424C7.00066 43.6812 7.10441 43.4308 7.28908 43.2461C7.47374 43.0614 7.72421 42.9577 7.98537 42.9577H17.8915ZM17.8915 40.9883H7.98537C7.20189 40.9883 6.45049 41.2995 5.89649 41.8535C5.34249 42.4075 5.03125 43.1589 5.03125 43.9424V53.9815C5.03125 54.765 5.34249 55.5163 5.89649 56.0703C6.45049 56.6243 7.20189 56.9356 7.98537 56.9356H17.8915C18.675 56.9356 19.4264 56.6243 19.9804 56.0703C20.5344 55.5163 20.8456 54.765 20.8456 53.9815V43.9424C20.8456 43.1589 20.5344 42.4075 19.9804 41.8535C19.4264 41.2995 18.675 40.9883 17.8915 40.9883ZM41.0862 46.8719H24.3463C24.0851 46.8719 23.8346 46.7682 23.65 46.5835C23.4653 46.3988 23.3615 46.1484 23.3615 45.8872C23.3615 45.626 23.4653 45.3756 23.65 45.1909C23.8346 45.0062 24.0851 44.9025 24.3463 44.9025H41.0862C41.3474 44.9025 41.5979 45.0062 41.7825 45.1909C41.9672 45.3756 42.071 45.626 42.071 45.8872C42.071 46.1484 41.9672 46.3988 41.7825 46.5835C41.5979 46.7682 41.3474 46.8719 41.0862 46.8719ZM34.2918 53.0214H24.3659C24.1048 53.0214 23.8543 52.9176 23.6697 52.733C23.485 52.5483 23.3812 52.2978 23.3812 52.0367C23.3812 51.7755 23.485 51.5251 23.6697 51.3404C23.8543 51.1557 24.1048 51.052 24.3659 51.052H34.2918C34.5529 51.052 34.8034 51.1557 34.9881 51.3404C35.1727 51.5251 35.2765 51.7755 35.2765 52.0367C35.2765 52.2978 35.1727 52.5483 34.9881 52.733C34.8034 52.9176 34.5529 53.0214 34.2918 53.0214Z" fill="white"/>
</svg>
