<svg width="54" height="30" viewBox="0 0 54 30" fill="none" xmlns="http://www.w3.org/2000/svg">
<path d="M2.13043 13.4006V16.984C2.13068 17.5928 1.93223 18.185 1.56521 18.6706C1.19867 19.1557 1.00024 19.747 1 20.355V21.8437C1 22.6023 1.30132 23.3297 1.83767 23.8661C2.37402 24.4024 3.10147 24.7037 3.85998 24.7037H5.52171M47.577 25.2169H48.4814C49.0794 25.2159 49.6713 25.0964 50.2229 24.8653C50.7745 24.6342 51.2748 24.2961 51.6949 23.8705C52.115 23.4449 52.4467 22.9403 52.6706 22.3857C52.8946 21.8312 53.0064 21.2378 52.9997 20.6398V18.2739C52.9996 16.6706 52.4351 15.1185 51.4051 13.8899C50.3751 12.6613 48.9454 11.8345 47.3668 11.5546L38.7574 10.1189L38.3448 9.6939C36.2953 6.96758 33.6343 4.76062 30.5759 3.25072C27.5176 1.74083 24.1474 0.970198 20.7368 1.00088C17.3262 1.03157 13.9704 1.86271 10.9397 3.42738C7.90903 4.99205 5.28811 7.24653 3.28799 10.0093H1" stroke="white" stroke-width="2" stroke-miterlimit="10" stroke-linecap="round"/>
<path d="M14.5469 24.7051H38.486" stroke="white" stroke-width="2" stroke-miterlimit="10"/>
<path d="M42.9358 28.1313C45.4331 28.1313 47.4575 26.1069 47.4575 23.6096C47.4575 21.1123 45.4331 19.0879 42.9358 19.0879C40.4385 19.0879 38.4141 21.1123 38.4141 23.6096C38.4141 26.1069 40.4385 28.1313 42.9358 28.1313Z" stroke="white" stroke-width="2" stroke-miterlimit="10"/>
<path d="M10.2248 28.1313C12.7221 28.1313 14.7466 26.1069 14.7466 23.6096C14.7466 21.1123 12.7221 19.0879 10.2248 19.0879C7.72757 19.0879 5.70312 21.1123 5.70312 23.6096C5.70312 26.1069 7.72757 28.1313 10.2248 28.1313Z" stroke="white" stroke-width="2" stroke-miterlimit="10"/>
<path d="M21.3494 5.4873V15.6612C21.3494 16.8604 21.8258 18.0105 22.6738 18.8585C23.5218 19.7065 24.6719 20.1829 25.8712 20.1829H34.9146M5.52344 12.2699H34.9146" stroke="white" stroke-width="2" stroke-miterlimit="10" stroke-linecap="round"/>
<path d="M46.8594 11.5244V14.0407C46.8597 14.9302 47.2131 15.7831 47.8421 16.412C48.471 17.041 49.3239 17.3944 50.2134 17.3947H52.7297" stroke="white" stroke-width="2" stroke-miterlimit="10"/>
</svg>
