<svg width="52" height="50" viewBox="0 0 52 50" fill="none" xmlns="http://www.w3.org/2000/svg">
<path d="M49.7067 2.80434H47.7936V0.870898C47.7936 0.390609 47.4029 0 46.9227 0H44.3369C43.8566 0 43.466 0.390711 43.466 0.870898V2.80424H37.9788V0.870898C37.9788 0.390609 37.5881 0 37.1079 0H34.522C34.0417 0 33.6511 0.390711 33.6511 0.870898V2.80424H28.164V0.870898C28.164 0.390609 27.7733 0 27.2931 0H24.7071C24.2268 0 23.8362 0.390711 23.8362 0.870898V2.80424H18.3491V0.870898C18.3491 0.390609 17.9584 0 17.4782 0H14.8923C14.412 0 14.0214 0.390711 14.0214 0.870898V2.80424H8.53409V0.870898C8.53409 0.390609 8.14338 0 7.6632 0H5.07741C4.59713 0 4.20652 0.390711 4.20652 0.870898V2.80424H2.29328C1.02873 2.80434 0 3.83297 0 5.09763V46.9026C0 48.167 1.02873 49.1959 2.29328 49.1959H12.6307C13.0514 49.1959 13.3924 48.8549 13.3924 48.4341C13.3924 48.0134 13.0514 47.6724 12.6307 47.6724H9.93738V28.1636H16.8264V47.6724H16.1855C15.7648 47.6724 15.4238 48.0134 15.4238 48.4341C15.4238 48.8549 15.7648 49.1959 16.1855 49.1959H49.7067C50.9713 49.1959 52 48.167 52 46.9026V5.09763C52 3.83297 50.9713 2.80434 49.7067 2.80434ZM44.9894 1.52344H46.2701V5.60859H44.9894V1.52344ZM35.1744 1.52344H36.4552V5.60859H35.1744V1.52344ZM25.3595 1.52344H26.6404V5.60859H25.3595V1.52344ZM15.5448 1.52344H16.8256V5.60859H15.5448V1.52344ZM5.72985 1.52344H7.01066V5.60859H5.72985V1.52344ZM2.29328 4.32778H4.20641V6.26113C4.20641 6.74141 4.59713 7.13202 5.07731 7.13202H7.66309C8.14338 7.13202 8.53399 6.74131 8.53399 6.26113V4.32778H14.0212V6.26113C14.0212 6.74141 14.4119 7.13202 14.8921 7.13202H17.478C17.9583 7.13202 18.3489 6.74131 18.3489 6.26113V4.32778H23.836V6.26113C23.836 6.74141 24.2267 7.13202 24.7069 7.13202H27.2928C27.7731 7.13202 28.1637 6.74131 28.1637 6.26113V4.32778H33.6508V6.26113C33.6508 6.74141 34.0415 7.13202 34.5217 7.13202H37.1076C37.5879 7.13202 37.9785 6.74131 37.9785 6.26113V4.32778H43.4657V6.26113C43.4657 6.74141 43.8564 7.13202 44.3366 7.13202H46.9224C47.4027 7.13202 47.7933 6.74131 47.7933 6.26113V4.32778H49.7064C50.1309 4.32778 50.4763 4.67309 50.4763 5.09763V9.815H14.4081C13.9874 9.815 13.6463 10.1559 13.6463 10.5767C13.6463 10.9975 13.9874 11.3384 14.4081 11.3384H16.8264V18.2277H14.1431V14.8934C14.1431 14.4127 13.752 14.0215 13.2712 14.0215H9.93738V11.3384H10.8533C11.2739 11.3384 11.615 10.9975 11.615 10.5767C11.615 10.1559 11.2739 9.815 10.8533 9.815H1.52344V5.09763C1.52344 4.67309 1.86875 4.32778 2.29328 4.32778ZM40.7824 43.465V40.7822H46.2693V43.465H40.7824ZM46.2693 39.2588H37.9783V36.576H46.2693V39.2588ZM37.3268 35.0526C36.8461 35.0526 36.4548 35.4438 36.4548 35.9245V39.9102C36.4548 40.391 36.8461 40.7822 37.3268 40.7822H39.2589V44.1164C39.2589 44.5972 39.6501 44.9884 40.1309 44.9884H42.0635V47.6724H35.1745V32.3698H38.5083C38.989 32.3698 39.3802 31.9786 39.3802 31.4978V27.5121C39.3802 27.0314 38.989 26.6402 38.5083 26.6402H35.1745V11.3384H42.0635V35.0526H37.3268ZM9.93687 26.6402V23.9574H21.0321V26.6402H9.93687ZM12.6196 15.545V18.2277H4.32859V15.545H12.6196ZM7.13273 19.7512H16.8259V22.4339H7.13273V19.7512ZM25.2388 11.3384V26.6402H22.5555V23.3059C22.5555 22.8252 22.1644 22.4339 21.6836 22.4339H18.3498V11.3384H25.2388ZM31.8867 26.6402C31.4659 26.6402 31.1249 26.9811 31.1249 27.4019C31.1249 27.8226 31.4659 28.1636 31.8867 28.1636H37.8569V30.8464H22.5555V28.1636H28.332C28.7528 28.1636 29.0937 27.8226 29.0937 27.4019C29.0937 26.9811 28.7528 26.6402 28.332 26.6402H26.7622V11.3384H33.6512V26.6402H31.8867ZM22.5555 32.3698H29.4445V35.0526H22.5555V32.3698ZM30.096 36.576C30.5767 36.576 30.9679 36.1848 30.9679 35.704V32.3698H33.6512V47.6724H26.7622V36.576H30.096ZM2.29328 47.6724C1.86875 47.6724 1.52344 47.3271 1.52344 46.9026V11.3384H8.41395V14.0215H3.67707C3.19627 14.0215 2.80516 14.4127 2.80516 14.8934V18.8791C2.80516 19.3599 3.19638 19.7512 3.67707 19.7512H5.6093V23.0854C5.6093 23.5662 6.00052 23.9574 6.48121 23.9574H8.41344C8.41344 28.1155 8.41395 30.836 8.41395 47.6724H2.29328ZM18.3498 28.1636H21.0321V35.704C21.0321 36.1848 21.4233 36.576 21.904 36.576H25.2387V47.6724H18.3497V28.1636H18.3498ZM50.4766 46.9026C50.4766 47.3271 50.1313 47.6724 49.7067 47.6724H43.5871V44.9884H46.9209C47.4016 44.9884 47.7928 44.5972 47.7928 44.1164V35.9245C47.7928 35.4438 47.4016 35.0526 46.9209 35.0526H43.5871V11.3384H50.4766V46.9026Z" fill="white"/>
</svg>
