<svg width="51" height="43" viewBox="0 0 51 43" fill="none" xmlns="http://www.w3.org/2000/svg">
<path d="M49.9332 19.1877C48.5008 18.0751 46.1759 18.6668 44.3082 19.1429C44.2545 19.1569 44.2007 19.1698 44.1479 19.1838L41.7074 13.6246C40.9644 11.9352 39.3587 10.8863 37.5159 10.8863H34.8115C35.0735 10.5337 35.199 10.1153 35.1751 9.66209C35.1462 9.12221 34.9141 8.65405 34.5087 8.3094L33.9389 7.81832C33.8393 7.73365 33.8064 7.62906 33.8383 7.49957L34.1222 6.32418C34.2507 5.80322 34.165 5.28725 33.8722 4.83203C33.5793 4.37483 33.142 4.08297 32.6141 3.98735L31.879 3.84889C31.7515 3.82498 31.6678 3.74928 31.631 3.62278L31.2883 2.45735C31.1349 1.93838 30.8012 1.53596 30.3271 1.29391C29.846 1.04588 29.321 1.01102 28.812 1.19131L28.1088 1.44033C27.9862 1.48317 27.8767 1.46026 27.7821 1.36961L26.9035 0.5309L26.9025 0.529904C26.51 0.156369 26.019 -0.0259167 25.4831 0.00297002C24.9412 0.0318567 24.471 0.262951 24.1254 0.670353L23.6413 1.23613C23.5536 1.33774 23.448 1.3716 23.3176 1.34072L22.1422 1.05584C21.6202 0.927345 21.1032 1.01401 20.645 1.30785C20.1958 1.59971 19.9049 2.03201 19.8043 2.56094L19.6659 3.29904C19.642 3.42654 19.5673 3.51022 19.4438 3.54707L18.2753 3.88973C17.7564 4.04313 17.3539 4.37682 17.1099 4.85694C16.8679 5.33606 16.833 5.85602 17.0103 6.36203L17.2593 7.06926C17.3031 7.19178 17.2802 7.30135 17.1886 7.39598L16.3489 8.27553C15.9803 8.66301 15.798 9.1511 15.8229 9.69496C15.8469 10.1542 16.0192 10.5606 16.318 10.8853H13.4821C11.6374 10.8853 10.0327 11.9352 9.29256 13.6236L6.84316 19.2007C6.78639 19.1857 6.72861 19.1718 6.67084 19.1569C4.80914 18.6777 2.49123 18.0821 1.06383 19.1897C0.358594 19.7396 0 20.6052 0 21.7646C0 23.5666 1.46625 25.0328 3.26818 25.0328H4.57107C4.55865 25.1799 4.55234 25.3275 4.55215 25.4751V33.6211C4.55215 35.0605 5.16475 36.3584 6.14191 37.2708V39.6883C6.14191 41.0082 7.2157 42.081 8.53453 42.081H14.2382C15.558 42.081 16.6308 41.0072 16.6308 39.6883V38.6165H34.3682V39.6883C34.3682 41.0082 35.442 42.081 36.7608 42.081H42.4645C43.7843 42.081 44.8571 41.0072 44.8571 39.6883V37.2708C45.8343 36.3584 46.4469 35.0605 46.4469 33.6211V25.4751C46.4469 25.3247 46.4399 25.1772 46.4279 25.0328H47.7308C49.5328 25.0328 50.999 23.5666 50.999 21.7646C51 20.6052 50.6404 19.7386 49.9332 19.1877ZM19.3402 15.6705C19.3511 15.6905 19.3611 15.7114 19.368 15.7353L19.7107 16.9037C19.8631 17.4187 20.1968 17.8201 20.6779 18.0681C21.154 18.3112 21.674 18.346 22.187 18.1687L22.8892 17.9207C23.0157 17.8769 23.1213 17.8988 23.217 17.9904L24.0995 18.8331C24.4661 19.1778 24.9203 19.3581 25.4233 19.3581C25.4542 19.3581 25.4861 19.3571 25.5179 19.3561C26.0528 19.3272 26.521 19.0971 26.8706 18.6907L27.3617 18.1209C27.4464 18.0213 27.5539 17.9864 27.6785 18.0163L28.8558 18.3032C29.3768 18.4327 29.8928 18.346 30.348 18.0532C30.7992 17.7633 31.0911 17.329 31.1917 16.7951L31.3301 16.06C31.354 15.9325 31.4297 15.8488 31.5562 15.812L32.0423 15.6695H37.3814L39.783 21.1471H11.215L13.6176 15.6695H19.3402V15.6705ZM17.5063 9.3782L18.3421 8.50264C18.8471 7.97869 19.0085 7.22664 18.7654 6.54033L18.5174 5.8361C18.4845 5.74147 18.4895 5.66875 18.5343 5.5801C18.5781 5.49443 18.6329 5.44961 18.7286 5.42172L19.896 5.08006C20.6002 4.87287 21.1022 4.31705 21.2367 3.59488L21.3742 2.86076C21.3931 2.76414 21.4339 2.70238 21.5126 2.65158C21.5973 2.5968 21.668 2.58485 21.7666 2.60875L22.944 2.89363C23.6582 3.06596 24.3714 2.83686 24.8525 2.27805L25.3406 1.70828C25.4034 1.63457 25.4671 1.60469 25.5687 1.59871C25.6654 1.59373 25.7311 1.61863 25.8038 1.68736L26.6814 2.52508C27.2073 3.02711 27.9584 3.18748 28.6417 2.94543L29.3459 2.69641C29.4405 2.66254 29.5083 2.66752 29.5999 2.71434C29.6856 2.75817 29.7304 2.81295 29.7593 2.90858L30.101 4.07102C30.3081 4.77824 30.863 5.28127 31.5861 5.41574L32.3262 5.5552C32.4209 5.57213 32.4776 5.61098 32.5304 5.69266C32.5852 5.77733 32.5972 5.84705 32.5733 5.94367L32.2884 7.12404C32.1151 7.84123 32.3452 8.55344 32.902 9.02858L33.4737 9.52065C33.5474 9.5834 33.5773 9.64615 33.5833 9.74576C33.5883 9.84338 33.5644 9.90813 33.4946 9.98084L32.6569 10.8614C32.5313 10.9925 32.4243 11.1403 32.3392 11.3007C32.3332 11.3116 32.3282 11.3236 32.3222 11.3345C32.0931 11.7888 32.0573 12.3137 32.2356 12.8177L32.4846 13.5259C32.5175 13.6196 32.5135 13.6863 32.4647 13.7799C32.4209 13.8656 32.3661 13.9104 32.2714 13.9393L31.7355 14.0967C31.7096 14.1027 31.6847 14.1106 31.6598 14.1186L31.108 14.281C30.4008 14.4882 29.8978 15.043 29.7633 15.7662L29.6248 16.4993C29.6059 16.6009 29.568 16.6577 29.4864 16.7105C29.4017 16.7652 29.332 16.7772 29.2373 16.7533L28.055 16.4644C27.3398 16.2911 26.6266 16.5232 26.1504 17.081L25.6614 17.6488C25.5966 17.7235 25.5309 17.7563 25.4402 17.7613C25.3356 17.7663 25.2669 17.7404 25.1962 17.6737L24.3206 16.838C23.9551 16.4853 23.4929 16.3011 23.0118 16.3011C22.7956 16.3011 22.5755 16.3389 22.3583 16.4146L21.6601 16.6616C21.5624 16.6955 21.4907 16.6905 21.4051 16.6467C21.3134 16.5999 21.2686 16.5461 21.2407 16.4515L20.899 15.284C20.7666 14.8338 20.4906 14.4672 20.1191 14.2242C20.0862 14.2003 20.0514 14.1794 20.0155 14.1614C19.8276 14.0555 19.6238 13.9808 19.4119 13.9403L18.6807 13.8058C18.5811 13.7869 18.5214 13.7471 18.4696 13.6674C18.4148 13.5817 18.4028 13.512 18.4267 13.4134L18.7106 12.239C18.8889 11.5268 18.6598 10.8126 18.097 10.3265L17.5273 9.8384C17.4536 9.77565 17.4237 9.7119 17.4187 9.61727C17.4137 9.51666 17.4386 9.44893 17.5063 9.3782ZM10.7558 14.266C11.2449 13.1494 12.2649 12.482 13.4841 12.482H17.0113L16.8778 13.0359C16.7912 13.3905 16.8051 13.7421 16.9137 14.0748H13.4851C12.9014 14.0748 12.4492 14.3686 12.2121 14.9045L9.74977 20.5185C9.53062 21.0186 9.57645 21.5674 9.87228 22.0196C10.1691 22.4788 10.6542 22.7428 11.2031 22.7428H39.7969C40.3438 22.7428 40.8269 22.4808 41.1247 22.0236C41.4255 21.5694 41.4714 21.0215 41.2502 20.5175L38.7869 14.9025C38.5508 14.3686 38.0996 14.0748 37.5149 14.0748H34.0455C34.1321 13.7212 34.1152 13.3546 33.9867 12.995L33.8064 12.482H37.5149C38.7341 12.482 39.7551 13.1494 40.2462 14.267L44.5672 24.1114C44.7674 24.5637 44.8521 24.9711 44.8521 25.4751V33.6211C44.8521 35.4968 43.3261 37.0218 41.4514 37.0218H9.54855C7.67291 37.0218 6.14789 35.4958 6.14789 33.6211V25.4751C6.14789 24.9721 6.23355 24.5637 6.43377 24.1104L8.02951 20.4767C8.0315 20.4717 8.0335 20.4667 8.03648 20.4617L10.7558 14.266ZM1.59574 21.7646C1.59574 20.7984 1.93242 20.5374 2.04299 20.4518C2.83787 19.8362 4.83305 20.3332 6.1957 20.6829L4.98545 23.4381H3.26818C2.3458 23.4381 1.59574 22.687 1.59574 21.7646ZM15.036 39.6893C15.036 40.1296 14.6784 40.4872 14.2382 40.4872H8.53453C8.09426 40.4872 7.73666 40.1296 7.73666 39.6893V38.2769C8.29846 38.496 8.90906 38.6185 9.54756 38.6185H15.035V39.6893H15.036ZM43.2633 39.6893C43.2633 40.1296 42.9057 40.4872 42.4655 40.4872H36.7618C36.3216 40.4872 35.964 40.1296 35.964 39.6893V38.6175H41.4514C42.0899 38.6175 42.7005 38.496 43.2623 38.2759V39.6893H43.2633ZM47.7318 23.4381H46.0146L44.7973 20.6659C46.165 20.3183 48.1571 19.8292 48.954 20.4488C49.0656 20.5355 49.4043 20.7984 49.4043 21.7656C49.4043 22.687 48.6542 23.4381 47.7318 23.4381ZM7.48564 26.0737V29.315C7.48564 29.9834 8.02951 30.5273 8.69789 30.5273H15.7741C16.1965 30.5273 16.6278 30.2942 16.8469 29.9465C17.0352 29.6467 17.0591 29.2822 16.9067 28.9654L16.4973 28.1237C15.5032 26.0797 13.5519 24.8595 11.2768 24.8595H8.69789C8.02951 24.8605 7.48564 25.4054 7.48564 26.0737ZM9.08139 26.4562H11.2768C12.9273 26.4562 14.3428 27.3408 15.0629 28.823L15.1167 28.9325H9.08139V26.4562ZM35.2259 30.5283H42.3021C42.9705 30.5283 43.5144 29.9844 43.5144 29.316V26.0747C43.5144 25.4063 42.9705 24.8625 42.3021 24.8625H39.7242C37.4491 24.8625 35.4978 26.0827 34.5037 28.1267L34.0923 28.9724C33.9429 29.2851 33.9658 29.6497 34.1541 29.9495C34.3722 30.2942 34.8025 30.5283 35.2259 30.5283ZM35.9371 28.823C36.6582 27.3408 38.0737 26.4562 39.7232 26.4562H41.9186V28.9325H35.8833L35.9371 28.823ZM18.7126 33.3751C18.7126 32.9348 19.0692 32.5772 19.5105 32.5772H31.4905C31.9308 32.5772 32.2884 32.9338 32.2884 33.3751C32.2884 33.8164 31.9318 34.173 31.4905 34.173H19.5095C19.4048 34.173 19.3011 34.1523 19.2043 34.1122C19.1076 34.0721 19.0197 34.0133 18.9457 33.9392C18.8717 33.8651 18.813 33.7772 18.773 33.6804C18.733 33.5836 18.7125 33.4798 18.7126 33.3751ZM23.3305 9.57942C24.471 9.57942 25.3984 8.65006 25.3984 7.50854C25.3984 6.36801 24.471 5.44065 23.3305 5.44065C22.189 5.44065 21.2596 6.36801 21.2596 7.50854C21.2586 8.65106 22.188 9.57942 23.3305 9.57942ZM23.3305 7.03539C23.5915 7.03539 23.8037 7.24756 23.8037 7.50854C23.8037 7.77051 23.5915 7.98467 23.3305 7.98467C23.0725 7.98467 22.8544 7.76652 22.8544 7.50854C22.8544 7.24756 23.0675 7.03539 23.3305 7.03539ZM21.4927 13.6883C21.4186 13.6142 21.3598 13.5262 21.3197 13.4294C21.2796 13.3326 21.2589 13.2288 21.2589 13.124C21.2589 13.0192 21.2796 12.9154 21.3197 12.8186C21.3598 12.7218 21.4186 12.6338 21.4927 12.5597L28.3797 5.67274C28.6915 5.36096 29.1965 5.36096 29.5083 5.67274C29.8201 5.98451 29.8201 6.48953 29.5083 6.80131L22.6213 13.6883C22.4659 13.8437 22.2617 13.9224 22.0575 13.9224C21.8533 13.9224 21.6481 13.8447 21.4927 13.6883ZM27.6695 9.78262C26.529 9.78262 25.6016 10.71 25.6016 11.8505C25.6016 12.992 26.529 13.9214 27.6695 13.9214C28.811 13.9214 29.7404 12.992 29.7404 11.8505C29.7414 10.711 28.812 9.78262 27.6695 9.78262ZM27.6695 12.3266C27.4085 12.3266 27.1963 12.1135 27.1963 11.8505C27.1963 11.5895 27.4085 11.3774 27.6695 11.3774C27.9315 11.3774 28.1456 11.5895 28.1456 11.8505C28.1456 11.9768 28.0955 12.0979 28.0062 12.1872C27.9169 12.2765 27.7958 12.3266 27.6695 12.3266Z" fill="white"/>
</svg>
