<svg width="52" height="52" viewBox="0 0 52 52" fill="none" xmlns="http://www.w3.org/2000/svg">
<path d="M13.4812 14.9764C13.5431 15.0347 13.5929 15.1046 13.6278 15.1821C13.6626 15.2596 13.6819 15.3433 13.6844 15.4283C13.6869 15.5132 13.6726 15.5979 13.6424 15.6773C13.6121 15.7568 13.5665 15.8295 13.5081 15.8913L9.53369 20.1106C9.41178 20.2401 9.24132 20.3145 9.06224 20.3145C8.88315 20.3145 8.71377 20.2412 8.59079 20.1106L6.63162 18.0306C6.38672 17.7706 6.39859 17.3607 6.65859 17.1158C6.91859 16.8709 7.32855 16.8827 7.57344 17.1427L9.06116 18.7222L12.5641 15.0034C12.8112 14.7434 13.2212 14.7315 13.4812 14.9764ZM16.6983 18.2043H34.265C34.6221 18.2043 34.9123 17.9141 34.9123 17.557C34.9123 17.1999 34.6221 16.9097 34.265 16.9097H16.6983C16.3412 16.9097 16.0509 17.1999 16.0509 17.557C16.0509 17.9141 16.3412 18.2043 16.6983 18.2043ZM12.5663 22.2661L9.06332 25.9849L7.5756 24.4055C7.51734 24.3436 7.44745 24.2937 7.36992 24.2589C7.29239 24.224 7.20874 24.2048 7.12376 24.2022C7.03879 24.1997 6.95415 24.214 6.8747 24.2443C6.79525 24.2745 6.72255 24.3201 6.66074 24.3785C6.59883 24.4368 6.54901 24.5066 6.51414 24.5842C6.47927 24.6617 6.46003 24.7454 6.45752 24.8303C6.45502 24.9153 6.4693 24.9999 6.49954 25.0794C6.52978 25.1588 6.5754 25.2316 6.63377 25.2934L8.59294 27.3734C8.71485 27.5028 8.88531 27.5773 9.06439 27.5773C9.24348 27.5773 9.41286 27.5039 9.53585 27.3734L13.5103 23.154C13.7552 22.894 13.7433 22.4841 13.4833 22.2392C13.2233 21.9943 12.8112 22.0051 12.5663 22.2661ZM16.6983 25.466H27.1846C27.5417 25.466 27.8319 25.1758 27.8319 24.8187C27.8319 24.4616 27.5417 24.1714 27.1846 24.1714H16.6983C16.3412 24.1714 16.0509 24.4616 16.0509 24.8187C16.0509 25.1758 16.3412 25.466 16.6983 25.466ZM12.5663 29.5278L9.06332 33.2465L7.5756 31.6671C7.51734 31.6052 7.44745 31.5554 7.36992 31.5205C7.29239 31.4857 7.20874 31.4664 7.12376 31.4639C7.03879 31.4614 6.95415 31.4757 6.8747 31.5059C6.79525 31.5362 6.72255 31.5818 6.66074 31.6402C6.59883 31.6984 6.54901 31.7683 6.51414 31.8458C6.47927 31.9234 6.46003 32.007 6.45752 32.092C6.45502 32.177 6.4693 32.2616 6.49954 32.3411C6.52978 32.4205 6.5754 32.4932 6.63377 32.555L8.59294 34.635C8.65348 34.6993 8.72653 34.7506 8.8076 34.7857C8.88868 34.8207 8.97606 34.8389 9.06439 34.8389C9.2424 34.8389 9.41286 34.7656 9.53585 34.635L13.5103 30.4157C13.6279 30.2907 13.6912 30.1242 13.6861 29.9527C13.6811 29.7811 13.6081 29.6186 13.4833 29.5008C13.2212 29.2548 12.8112 29.2678 12.5663 29.5278ZM23.0666 31.4341H16.6983C16.3412 31.4341 16.0509 31.7243 16.0509 32.0814C16.0509 32.4385 16.3412 32.7287 16.6983 32.7287H23.0666C23.4237 32.7287 23.7139 32.4385 23.7139 32.0814C23.7139 31.7243 23.4248 31.4341 23.0666 31.4341ZM37.2544 39.205V34.5983C37.2544 34.2412 36.9642 33.951 36.6071 33.951C36.25 33.951 35.9598 34.2412 35.9598 34.5983V39.4725C35.9598 39.6441 36.0278 39.8091 36.1497 39.9299L38.4703 42.2505C38.5303 42.3107 38.6016 42.3584 38.6801 42.3909C38.7586 42.4235 38.8427 42.4402 38.9277 42.4402C39.0127 42.4402 39.0968 42.4235 39.1753 42.3909C39.2538 42.3584 39.3251 42.3107 39.3851 42.2505C39.5064 42.1292 39.5744 41.9646 39.5744 41.7931C39.5744 41.6216 39.5064 41.457 39.3851 41.3357L37.2544 39.205ZM52 29.2009C52.0008 29.3457 51.9671 29.4885 51.9016 29.6176C51.8361 29.7467 51.7408 29.8583 51.6235 29.9431L47.3728 33.0664C48.5261 34.9997 49.1346 37.2016 49.1346 39.4725C49.1346 46.3803 43.5149 52 36.6071 52C29.8072 52 24.2555 46.554 24.084 39.7951H3.3595C1.50714 39.7951 0 38.288 0 36.4356V6.42448C0 4.57212 1.50714 3.06498 3.3595 3.06498H5.52689C5.83436 1.32589 7.3566 0 9.18199 0C11.0085 0 12.5296 1.32589 12.8371 3.06498H16.8417C17.1481 1.32589 18.6704 0 20.4958 0C22.3222 0 23.8434 1.32589 24.1509 3.06498H28.1555C28.4619 1.32589 29.9841 0 31.8095 0C33.636 0 35.1572 1.32589 35.4646 3.06498H37.632C39.4844 3.06498 40.9915 4.57212 40.9915 6.42448V26.9451H45.2119V25.5674C45.2113 25.3969 45.2582 25.2297 45.3474 25.0845C45.4366 24.9393 45.5645 24.8218 45.7168 24.7453C46.0297 24.5878 46.3976 24.618 46.6792 24.8251L51.6245 28.4587C51.863 28.6345 52 28.9042 52 29.2009ZM29.4803 3.06498H34.1387C33.8539 2.04548 32.9186 1.29461 31.8095 1.29461C30.7005 1.29461 29.7641 2.04548 29.4803 3.06498ZM18.1665 3.06498H22.825C22.5412 2.04548 21.6048 1.29461 20.4958 1.29461C19.3878 1.29461 18.4503 2.04548 18.1665 3.06498ZM6.85278 3.06498H11.5112C11.2275 2.04548 10.291 1.29461 9.18199 1.29461C8.07402 1.29461 7.13651 2.04548 6.85278 3.06498ZM1.29461 6.42448V10.7355H39.6958V6.42448C39.6958 5.28631 38.7691 4.35958 37.6309 4.35958H35.4636C35.1561 6.09867 33.6349 7.42456 31.8085 7.42456C31.4514 7.42456 31.1612 7.13436 31.1612 6.77726C31.1612 6.42016 31.4514 6.12996 31.8085 6.12996C32.9175 6.12996 33.8539 5.37909 34.1377 4.35958H24.1498C23.8423 6.09867 22.3212 7.42456 20.4947 7.42456C20.1376 7.42456 19.8474 7.13436 19.8474 6.77726C19.8474 6.42016 20.1376 6.12996 20.4947 6.12996C21.6037 6.12996 22.5402 5.37909 22.8239 4.35958H12.836C12.5285 6.09867 11.0074 7.42456 9.18091 7.42456C8.82381 7.42456 8.53361 7.13436 8.53361 6.77726C8.53361 6.42016 8.82381 6.12996 9.18091 6.12996C10.29 6.12996 11.2264 5.37909 11.5101 4.35958H3.3595C2.22133 4.35958 1.29461 5.28631 1.29461 6.42448ZM3.3595 38.5005H24.1174C24.6148 32.0458 30.0273 26.9451 36.6071 26.9451H39.6958V12.0301H1.29461V36.4356C1.29461 37.5738 2.22133 38.5005 3.3595 38.5005ZM47.84 39.4725C47.84 37.4422 47.2984 35.4754 46.2703 33.746C46.225 33.7525 46.1786 33.7568 46.1333 33.7568C45.9885 33.7566 45.8458 33.7222 45.7168 33.6565C45.5644 33.5801 45.4363 33.4627 45.3469 33.3174C45.2575 33.1722 45.2104 33.005 45.2109 32.8344V31.4568H41.3357C44.0759 33.0793 45.9186 36.0645 45.9186 39.4725C45.9186 44.6067 41.7424 48.7829 36.6082 48.7829C31.474 48.7829 27.2978 44.6067 27.2978 39.4725C27.2978 34.3383 31.474 30.1621 36.6082 30.1621H45.2119V28.2397H36.6082C30.4146 28.2397 25.3753 33.2789 25.3753 39.4725C25.3753 45.6661 30.4146 50.7054 36.6082 50.7054C42.8018 50.7054 47.84 45.6661 47.84 39.4725ZM41.3508 33.814L41.7953 33.3695C40.5503 32.3101 38.9784 31.624 37.2544 31.4859V32.1181C37.2544 32.4752 36.9642 32.7654 36.6071 32.7654C36.25 32.7654 35.9598 32.4752 35.9598 32.1181V31.4859C34.2358 31.624 32.664 32.3101 31.419 33.3695L31.8635 33.814C32.1159 34.0665 32.1159 34.4764 31.8635 34.7299C31.8034 34.7901 31.7321 34.8378 31.6537 34.8703C31.5752 34.9029 31.491 34.9197 31.406 34.9197C31.3211 34.9197 31.2369 34.9029 31.1584 34.8703C31.08 34.8378 31.0087 34.7901 30.9486 34.7299L30.5041 34.2855C29.4447 35.5304 28.7586 37.1023 28.6205 38.8263H29.2527C29.6098 38.8263 29.9 39.1165 29.9 39.4736C29.9 39.8307 29.6098 40.1209 29.2527 40.1209H28.6205C28.7586 41.8449 29.4447 43.4168 30.5041 44.6617L30.9486 44.2172C31.2011 43.9648 31.611 43.9648 31.8646 44.2172C32.117 44.4697 32.117 44.8797 31.8646 45.1332L31.4201 45.5777C32.6651 46.6371 34.2369 47.3232 35.9609 47.4613V46.8302C35.9609 46.4731 36.2511 46.1829 36.6082 46.1829C36.9653 46.1829 37.2555 46.4731 37.2555 46.8302V47.4613C38.9795 47.3232 40.5514 46.6371 41.7963 45.5777L41.3519 45.1332C41.0994 44.8807 41.0994 44.4708 41.3519 44.2172C41.6043 43.9648 42.0143 43.9648 42.2678 44.2172L42.7123 44.6617C43.7717 43.4168 44.4578 41.8449 44.5959 40.1209H43.9637C43.6066 40.1209 43.3164 39.8307 43.3164 39.4736C43.3164 39.1165 43.6066 38.8263 43.9637 38.8263H44.5959C44.4578 37.1023 43.7717 35.5304 42.7123 34.2855L42.2678 34.7299C42.2078 34.7901 42.1365 34.8378 42.058 34.8703C41.9795 34.9029 41.8953 34.9197 41.8104 34.9197C41.7254 34.9197 41.6412 34.9029 41.5628 34.8703C41.4843 34.8378 41.413 34.7901 41.3529 34.7299C41.2925 34.67 41.2445 34.5988 41.2117 34.5203C41.1789 34.4417 41.1619 34.3575 41.1617 34.2724C41.1615 34.1873 41.1781 34.103 41.2105 34.0244C41.243 33.9457 41.2906 33.8742 41.3508 33.814ZM50.4486 29.2009L46.5055 26.3042V32.0965L50.4486 29.2009ZM50.8575 28.8999C50.8575 28.901 50.8575 28.901 50.8575 28.8999V28.8999Z" fill="white"/>
</svg>
