<svg width="52" height="52" viewBox="0 0 52 52" fill="none" xmlns="http://www.w3.org/2000/svg">
<g clip-path="url(#clip0_963_8551)">
<path d="M26 0C20.4406 3.3479e-06 15.0277 1.78194 10.5555 5.08429C6.08327 8.38665 2.78732 13.0355 1.15131 18.3487C-0.484698 23.6619 -0.374607 29.3595 1.46543 34.6055C3.30546 39.8515 6.77854 44.3696 11.375 47.4967V46.3125C11.3756 46.0576 11.4065 45.8036 11.4672 45.5561C10.5968 44.9039 9.77075 44.1946 8.99436 43.433C9.30253 43.3084 9.58083 43.12 9.81092 42.8801C10.8001 41.8356 10.6194 40.1253 10.495 39.4375C10.4363 38.8765 10.4867 38.3094 10.6433 37.7674L10.6645 37.6659C10.7523 37.3017 10.8646 36.9439 11.0008 36.595C11.3376 35.8263 11.504 34.9938 11.4887 34.1547C11.36 32.4244 10.1306 31.371 9.04555 30.4411C8.08477 29.6181 7.2552 28.9071 7.13536 27.8545C7.01859 26.7711 7.00676 25.6789 7.10002 24.5932C7.10238 24.563 7.10306 24.5328 7.10205 24.5026C7.04274 22.5948 5.18861 21.361 2.11736 21.1514C2.40459 19.7375 2.81707 18.352 3.34992 17.0113C3.6643 17.1904 4.01774 17.2897 4.37936 17.3006C4.40861 17.3018 4.43745 17.3022 4.4667 17.3022C5.97795 17.3022 7.55989 15.9051 8.19486 15.1523C8.92367 14.2882 9.83652 13.8694 10.894 13.3843C11.0666 13.3051 11.2409 13.2251 11.4156 13.143C12.3122 12.7205 13.563 11.9905 14.0672 10.5324C14.3311 9.60116 14.3535 8.61801 14.1322 7.67569C13.9439 6.83178 13.6231 6.02306 13.1816 5.27962C16.1675 3.42413 19.5216 2.24083 23.0108 1.81187C23.023 1.82325 23.0331 1.83584 23.0461 1.84641C23.1003 2.1565 23.1191 2.47173 23.1022 2.78606L23.101 2.95019C23.1059 3.72653 23.0827 4.25709 22.7285 4.54878C22.4098 4.77321 22.0583 4.94685 21.6864 5.0635C21.4675 5.14678 21.2501 5.23006 21.0413 5.32553C19.9977 5.74485 19.0388 6.35008 18.2114 7.11181C17.5638 7.77156 17.3769 8.42278 17.6556 9.04841C17.7395 9.2379 17.8926 9.38818 18.0836 9.46851C18.2746 9.54884 18.4891 9.55314 18.6832 9.48054C18.8773 9.40793 19.0363 9.26391 19.1278 9.07794C19.2192 8.89196 19.2361 8.67808 19.175 8.48006C19.2331 8.39664 19.2992 8.31909 19.3724 8.2485C20.0642 7.63395 20.8578 7.14481 21.7177 6.80306C21.894 6.72222 22.0789 6.65275 22.2637 6.58288C22.8033 6.40798 23.31 6.14422 23.7628 5.80247C24.739 4.99809 24.7313 3.809 24.726 2.94084L24.7272 2.80516C24.7399 2.42407 24.7176 2.04263 24.6606 1.66562C25.1042 1.64125 25.5499 1.625 26 1.625C28.2873 1.62554 30.5631 1.94913 32.76 2.58619C32.1795 3.54209 32.4106 4.83681 32.5674 5.70578C32.5894 5.82522 32.6105 5.941 32.6284 6.05109C32.6885 6.41428 32.8713 7.51806 32.6194 7.83372C32.6048 7.852 32.5658 7.90075 32.3887 7.91091C32.3707 7.91218 32.3527 7.91286 32.3346 7.91294C31.6777 7.86175 27.2338 7.61719 26.9039 10.2245H26.9067C26.8986 10.2736 26.8932 10.3231 26.8905 10.3728C26.8324 11.3506 26.6159 11.789 26.4477 11.9815C26.3115 12.0786 26.1665 12.1626 26.0146 12.2326C25.5852 12.4068 25.2115 12.6951 24.934 13.0662C24.7138 13.4164 24.0451 14.4832 24.5684 15.3888C25.1794 16.4466 26.8121 16.3865 28.8799 16.3109C30.851 16.239 33.3035 16.1488 34.2818 17.1624C34.4814 17.3992 34.6275 17.6762 34.7102 17.9746C34.7928 18.273 34.8101 18.5857 34.7608 18.8914C34.723 19.1449 34.3289 19.5565 33.0752 19.4927L32.9351 19.4854C30.4834 19.3647 29.7728 19.242 29.5656 19.1795C27.5588 18.5758 25.062 17.825 22.4875 18.4767C21.0965 18.8522 19.849 19.6339 18.9044 20.7219C17.9598 21.8098 17.361 23.1547 17.1844 24.5846C16.9272 27.2001 17.6816 28.9977 19.4805 30.0629H26.9409C25.8817 29.638 24.7235 29.523 23.6015 29.7314C22.6752 29.7919 21.9135 29.4381 20.9515 28.9908L20.7126 28.8799C19.179 28.1734 18.5896 26.8974 18.8016 24.7443C18.9487 23.6483 19.4141 22.6196 20.1402 21.7856C20.8663 20.9516 21.8212 20.349 22.8865 20.0525C24.8686 19.5508 26.7905 20.0415 29.0964 20.735C29.6087 20.8906 30.7681 21.0056 32.855 21.1087L32.9915 21.1157C34.1648 21.1725 35.0715 20.9263 35.6809 20.3738C36.0778 20.0293 36.3278 19.546 36.3797 19.0231C36.4508 18.4873 36.4046 17.9424 36.2443 17.4263C36.0839 16.9101 35.8132 16.435 35.451 16.0339C33.969 14.4982 31.2341 14.599 28.8206 14.6872C27.8505 14.7225 26.4115 14.7761 26.0053 14.575C26.0658 14.3515 26.164 14.1399 26.2957 13.9494C26.4393 13.8438 26.5932 13.7531 26.7552 13.6788C27.0958 13.5308 27.4052 13.3193 27.6668 13.0557C28.4095 12.2078 28.487 10.8993 28.5126 10.4691L28.5139 10.4447L28.5163 10.4284C28.6126 9.66672 30.7763 9.41809 32.2339 9.53469C32.2534 9.53631 32.2737 9.53753 32.2932 9.53753C32.3602 9.53753 32.4244 9.53753 32.4874 9.53347C32.7567 9.52739 33.0214 9.46297 33.2634 9.34465C33.5054 9.22633 33.7188 9.05692 33.889 8.84813C34.5926 7.96656 34.3667 6.60156 34.2318 5.78581C34.2123 5.668 34.19 5.54409 34.1668 5.41612C33.9284 4.09906 33.9117 3.42794 34.4622 3.17688C34.4748 3.17119 34.4853 3.16266 34.4979 3.15616C38.0243 4.47722 41.1985 6.59387 43.7735 9.34151C46.3486 12.0892 48.2553 15.3937 49.3451 18.9983C48.9572 19.0818 48.5741 19.1864 48.1975 19.3115C47.424 19.5581 46.7565 19.771 45.9229 19.5926C45.5921 19.4851 45.2817 19.3228 45.0048 19.1124C44.4839 18.7047 43.8617 18.4468 43.2051 18.3666C42.8277 18.3447 42.4504 18.4114 42.1034 18.5613C41.7564 18.7112 41.4492 18.9401 41.2063 19.2298C40.9634 19.5155 40.7908 19.8541 40.7024 20.2185C40.6139 20.5829 40.612 20.9629 40.6969 21.3281C40.7827 21.6396 40.9104 21.938 41.0767 22.215C41.1889 22.3978 41.2789 22.5934 41.3449 22.7975C41.3099 22.8199 41.1775 22.8666 40.6924 22.8203C40.4706 22.7842 40.2534 22.7243 40.0445 22.6415C39.4904 22.3953 38.8754 22.3203 38.2785 22.4262C37.9646 22.497 37.6713 22.6389 37.421 22.8411C37.1707 23.0432 36.9703 23.3002 36.8351 23.5922C36.6761 23.9701 36.602 24.3783 36.6182 24.788C36.6343 25.1977 36.7402 25.5988 36.9285 25.963C37.5757 27.2557 38.5088 27.6372 39.3319 27.974C39.7231 28.1161 40.0958 28.3046 40.4422 28.5354C40.5049 28.5733 40.5584 28.6247 40.599 28.6857C40.6165 28.8604 40.1919 29.3772 40.0103 29.5978C39.8722 29.7668 39.7288 29.941 39.6094 30.1141C39.381 30.4464 39.1267 30.7673 38.8578 31.107C38.443 31.6084 38.0626 32.1374 37.7191 32.6901C37.7231 32.7121 37.7296 32.7332 37.7333 32.7551C38.1322 32.5865 38.5608 32.4997 38.9939 32.5H39.8308C39.9295 32.3724 40.0298 32.2449 40.1322 32.1157C40.4056 31.77 40.6888 31.4121 40.948 31.0355C41.0361 30.9079 41.1495 30.7714 41.2665 30.6288C41.7377 30.0552 42.3235 29.341 42.2102 28.4749C42.17 28.2189 42.0762 27.9744 41.9347 27.7573C41.7933 27.5402 41.6075 27.3556 41.3895 27.2155C40.9409 26.9091 40.4566 26.6587 39.9474 26.4696C39.2295 26.1763 38.7554 25.9825 38.3817 25.2362C38.3039 25.0899 38.2573 24.9291 38.2449 24.7638C38.2324 24.5986 38.2544 24.4326 38.3094 24.2763C38.3417 24.2057 38.3908 24.1441 38.4524 24.0968C38.514 24.0496 38.5862 24.0182 38.6628 24.0053C38.9555 23.9933 39.2468 24.0521 39.5119 24.1768C39.8423 24.3051 40.1872 24.3928 40.5389 24.438C40.961 24.4786 41.9506 24.5728 42.5591 23.8749C43.3391 22.9799 42.7968 21.9789 42.5055 21.4415C42.4149 21.2902 42.3395 21.1303 42.2805 20.9641C42.253 20.8442 42.2539 20.7195 42.2833 20.6C42.3126 20.4805 42.3695 20.3695 42.4495 20.2759C42.5306 20.1793 42.6333 20.103 42.7493 20.0532C42.8653 20.0034 42.9913 19.9814 43.1173 19.9891C43.4815 20.071 43.8219 20.2356 44.1122 20.4701C44.5534 20.7975 45.0523 21.0388 45.5829 21.1815C46.6283 21.3671 47.7049 21.2558 48.6903 20.8601C49.0396 20.7411 49.3962 20.6446 49.7579 20.5713C50.8296 25.2331 50.5 30.1077 48.8105 34.5828L49.894 36.259C51.5906 32.3037 52.2791 27.9892 51.8977 23.7024C51.5163 19.4155 50.077 15.2903 47.7089 11.6966C45.3407 8.10295 42.1177 5.15317 38.3289 3.11176C34.54 1.07035 30.3038 0.00114209 26 0ZM5.47623 24.5139C5.37892 25.6877 5.39389 26.8681 5.52092 28.039C5.71308 29.7253 6.92167 30.7608 7.98808 31.6749C8.95495 32.5037 9.7898 33.2187 9.8682 34.2757C9.8586 34.8851 9.72406 35.486 9.47292 36.0413C9.31016 36.4612 9.17713 36.8921 9.0748 37.3307L9.05327 37.4315C8.84645 38.178 8.79296 38.9586 8.89605 39.7264C9.05733 40.623 8.95333 41.4221 8.63117 41.7625C8.49455 41.8749 8.33421 41.9548 8.16223 41.9962C7.99025 42.0377 7.81111 42.0396 7.6383 42.0018C5.35254 39.396 3.65262 36.3299 2.65337 33.0108C1.65411 29.6917 1.37878 26.1968 1.84599 22.7622C2.72755 22.8191 5.38483 23.1055 5.47623 24.5139ZM12.5324 9.99944C12.2943 10.6872 11.7532 11.1877 10.7225 11.6732C10.5527 11.7532 10.3837 11.8308 10.2164 11.9076C9.08536 12.4264 7.91577 12.9626 6.95255 14.1046C6.38989 14.7713 5.22477 15.6772 4.47117 15.6772L4.43827 15.6768C4.35812 15.6748 4.27918 15.6568 4.20612 15.6238C4.13306 15.5908 4.06736 15.5435 4.01292 15.4846C5.79806 11.778 8.48676 8.57977 11.8316 6.18434C12.1445 6.73707 12.3795 7.33039 12.53 7.94747C12.6973 8.62113 12.6981 9.32539 12.5324 9.99944Z" fill="white"/>
<path d="M47.0568 34.8623C46.9108 34.6357 46.7102 34.4493 46.4734 34.3205C46.2365 34.1916 45.9711 34.1244 45.7015 34.125H38.9943C38.565 34.1254 38.1535 34.2961 37.8499 34.5996C37.5463 34.9031 37.3755 35.3146 37.375 35.7439V44.6875H36.1562V33.3125C36.1557 32.8817 35.9843 32.4687 35.6797 32.164C35.3751 31.8594 34.9621 31.688 34.5312 31.6875H15.8438C15.4129 31.688 14.9999 31.8594 14.6953 32.164C14.3907 32.4687 14.2193 32.8817 14.2188 33.3125V44.7452C13.8708 44.8347 13.5624 45.0372 13.3418 45.3208C13.1213 45.6044 13.0011 45.9532 13 46.3125V47.9375C13.0005 48.3683 13.1719 48.7813 13.4765 49.086C13.7812 49.3906 14.1942 49.562 14.625 49.5625H20.8256C21.0047 50.26 21.4108 50.8782 21.9798 51.3196C22.5489 51.761 23.2486 52.0005 23.9688 52.0005C24.6889 52.0005 25.3886 51.761 25.9577 51.3196C26.5267 50.8782 26.9328 50.26 27.1119 49.5625H41.5443C41.7235 50.26 42.1295 50.8782 42.6986 51.3196C43.2676 51.761 43.9673 52.0005 44.6875 52.0005C45.4077 52.0005 46.1074 51.761 46.6764 51.3196C47.2455 50.8782 47.6515 50.26 47.8307 49.5625H49.9878C50.5227 49.5606 51.0349 49.3466 51.4121 48.9674C51.7893 48.5883 52.0008 48.075 52 47.5402V43.3501C52.0004 42.8025 51.8422 42.2665 51.5446 41.8068L47.0568 34.8623ZM22.75 33.3125H27.625V37.375H22.75V33.3125ZM15.8438 33.3125H21.125V37.375C21.1255 37.8058 21.2969 38.2188 21.6015 38.5235C21.9062 38.8281 22.3192 38.9995 22.75 39H27.625C28.0558 38.9995 28.4688 38.8281 28.7735 38.5235C29.0781 38.2188 29.2495 37.8058 29.25 37.375V33.3125H34.5312V44.6875H29.0383C28.4303 43.9269 27.6589 43.313 26.7813 42.891C25.9038 42.4691 24.9425 42.25 23.9688 42.25C22.995 42.25 22.0337 42.4691 21.1562 42.891C20.2786 43.313 19.5072 43.9269 18.8992 44.6875H15.8438V33.3125ZM23.9688 50.375C23.6474 50.375 23.3332 50.2797 23.0659 50.1011C22.7987 49.9226 22.5904 49.6688 22.4674 49.3719C22.3445 49.0749 22.3123 48.7482 22.375 48.433C22.4377 48.1178 22.5924 47.8282 22.8197 47.601C23.047 47.3737 23.3365 47.2189 23.6517 47.1562C23.9669 47.0935 24.2937 47.1257 24.5906 47.2487C24.8875 47.3717 25.1413 47.58 25.3199 47.8472C25.4984 48.1144 25.5938 48.4286 25.5938 48.75C25.5932 49.1808 25.4218 49.5938 25.1172 49.8985C24.8126 50.2031 24.3996 50.3745 23.9688 50.375ZM37.375 47.9375H27.1119C26.9328 47.24 26.5267 46.6218 25.9577 46.1804C25.3886 45.739 24.6889 45.4995 23.9688 45.4995C23.2486 45.4995 22.5489 45.739 21.9798 46.1804C21.4108 46.6218 21.0047 47.24 20.8256 47.9375H14.625L14.6242 46.3125H19.7283L19.9708 45.9656C20.4191 45.3204 21.0168 44.7933 21.713 44.4292C22.4092 44.0652 23.1831 43.8751 23.9688 43.8751C24.7544 43.8751 25.5283 44.0652 26.2245 44.4292C26.9207 44.7933 27.5184 45.3204 27.9667 45.9656L28.2088 46.3125H37.375V47.9375ZM44.6875 50.375C44.3661 50.375 44.0519 50.2797 43.7847 50.1011C43.5175 49.9226 43.3092 49.6688 43.1862 49.3719C43.0632 49.0749 43.031 48.7482 43.0937 48.433C43.1564 48.1178 43.3112 47.8282 43.5385 47.601C43.7657 47.3737 44.0553 47.2189 44.3705 47.1562C44.6857 47.0935 45.0124 47.1257 45.3094 47.2487C45.6063 47.3717 45.8601 47.58 46.0386 47.8472C46.2172 48.1144 46.3125 48.4286 46.3125 48.75C46.312 49.1808 46.1406 49.5938 45.836 49.8985C45.5313 50.2031 45.1183 50.3745 44.6875 50.375ZM50.375 47.5402C50.3762 47.6442 50.3361 47.7445 50.2634 47.819C50.1907 47.8935 50.0915 47.9361 49.9874 47.9375L47.8311 47.9399C47.652 47.2415 47.2454 46.6226 46.6755 46.1809C46.1056 45.7393 45.4049 45.5 44.6838 45.5008C43.9628 45.5016 43.2626 45.7426 42.6938 46.1856C42.1249 46.6286 41.7198 47.2484 41.5423 47.9473L39 47.9497V44.6875H38.9984L38.9935 35.75L45.6917 35.7447L50.18 42.6892C50.3074 42.8861 50.3751 43.1156 50.375 43.3501V47.5402Z" fill="white"/>
<path d="M45.1693 37.9328C45.0592 37.7613 44.9077 37.6204 44.7288 37.5229C44.5499 37.4254 44.3493 37.3746 44.1456 37.375H41.8438C41.5206 37.3753 41.2108 37.5038 40.9823 37.7323C40.7538 37.9608 40.6253 38.2706 40.625 38.5938V41.4375C40.6253 41.7606 40.7538 42.0704 40.9823 42.2989C41.2108 42.5274 41.5206 42.6559 41.8438 42.6563H45.9843C46.2034 42.6563 46.4184 42.5972 46.6068 42.4853C46.7952 42.3734 46.9499 42.2128 47.0547 42.0203C47.1595 41.8279 47.2104 41.6108 47.2022 41.3918C47.194 41.1729 47.1269 40.9602 47.008 40.7761L45.1693 37.9328ZM42.25 41.0313V39H43.9246L45.238 41.0313H42.25Z" fill="white"/>
</g>
<defs>
<clipPath id="clip0_963_8551">
<rect width="52" height="52" fill="white"/>
</clipPath>
</defs>
</svg>
