<svg width="51" height="65" viewBox="0 0 51 65" fill="none" xmlns="http://www.w3.org/2000/svg">
<path d="M9.82603 47.8521V40.7822M9.82628 47.8521H6.02875C4.80474 47.8521 3.8125 46.8598 3.8125 45.6358V42.9985C3.8125 41.7745 4.80474 40.7822 6.02875 40.7822H9.82628V47.8521ZM41.1761 47.8521H44.9737C46.1977 47.8521 47.1899 46.8598 47.1899 45.6358V42.9985C47.1899 41.7745 46.1977 40.7822 44.9737 40.7822H41.1761V47.8521Z" stroke="white" stroke-width="2" stroke-miterlimit="10" stroke-linecap="round" stroke-linejoin="round"/>
<path d="M41.176 40.7822V49.0215C41.176 57.6788 34.1581 63.195 25.5008 63.195C17.9754 63.195 11.6889 59.0269 10.1735 52.2509M41.176 40.7822H44.9728L45.611 31.0738C45.611 27.4071 44.1243 24.0859 41.7216 21.6832C41.6702 21.6318 41.6185 21.581 41.5663 21.5304M41.176 40.7822L37.6645 31.8972C37.1402 30.5707 35.6685 29.8862 34.317 30.3392L26.8586 32.8395C25.9775 33.1349 25.0241 33.1349 24.143 32.8395L16.6846 30.3392C15.3331 29.8862 13.8614 30.5707 13.3371 31.8972L9.82563 40.7822H6.02884L5.39062 31.0738C5.39062 25.7928 8.47285 21.2314 12.9366 19.0928M25.5008 41.6557V44.555" stroke="white" stroke-width="2" stroke-miterlimit="10" stroke-linecap="round" stroke-linejoin="round"/>
<path d="M22.5172 48.9033C22.5172 48.9033 25.5048 50.5033 28.4924 48.9033M22.0221 12.6442C19.6432 11.9396 17.3005 12.1661 16.1818 12.3476C15.8051 12.4076 15.5648 12.7818 15.6624 13.1497C17.7498 20.9635 25.4247 21.7069 25.4247 21.7069C25.4247 21.7069 33.0996 20.9635 35.1869 13.1497C35.2845 12.7818 35.0443 12.4076 34.6676 12.3476C33.5488 12.1661 31.2062 11.9396 28.8273 12.6442" stroke="white" stroke-width="2" stroke-miterlimit="10" stroke-linecap="round" stroke-linejoin="round"/>
<path d="M25.7719 6.68217C25.6036 6.43277 25.2369 6.43277 25.0686 6.68217C24.0816 8.14482 21.3618 12.4969 21.431 15.9432C21.5155 20.1515 25.4202 21.7067 25.4202 21.7067C25.4202 21.7067 29.3249 20.1514 29.4095 15.9432C29.4786 12.4969 26.7589 8.14482 25.7719 6.68217Z" stroke="white" stroke-width="2" stroke-miterlimit="10" stroke-linecap="round" stroke-linejoin="round"/>
<path d="M25.4217 27.7029C32.7955 27.7029 38.7732 21.7252 38.7732 14.3514C38.7732 6.97764 32.7955 1 25.4217 1C18.048 1 12.0703 6.97764 12.0703 14.3514C12.0703 21.7252 18.048 27.7029 25.4217 27.7029Z" stroke="white" stroke-width="2" stroke-miterlimit="10" stroke-linecap="round" stroke-linejoin="round"/>
<path d="M25.4199 21.7074L28.7377 23.8256M25.4199 21.7074L22.102 23.8256M25.4199 21.7074V17.7943M43.9086 1.63281L42.5373 4.51794M48.7709 6.23413L45.9657 7.76222M50 12.8145L46.8323 12.4021M47.1264 18.8607L44.8061 16.6651M7.09137 1.63281L8.46267 4.51794M2.22914 6.23413L5.0343 7.76222M1 12.8145L4.1677 12.4021M3.87362 18.8607L6.19386 16.6651M32.0021 40.9776C32.0021 40.9776 33.2975 40.1013 34.8405 40.9776M16.1595 40.9776C16.1595 40.9776 17.4549 40.1013 18.9979 40.9776" stroke="white" stroke-width="2" stroke-miterlimit="10" stroke-linecap="round" stroke-linejoin="round"/>
</svg>
