<svg width="55" height="39" viewBox="0 0 55 39" fill="none" xmlns="http://www.w3.org/2000/svg">
<path d="M13.6641 17.7888L9.28125 16.8435C8.07812 16.5856 6.96094 17.531 6.96094 18.7341V20.5388C6.96094 21.9997 8.07812 22.3435 9.45312 22.3435H14.2656C15.2109 22.3435 16.1562 22.1716 16.1562 21.1403V20.8825C16.1562 19.3356 15.125 18.0466 13.6641 17.7888ZM8.59375 20.5388V18.6481C8.59375 18.4763 8.76562 18.3044 8.9375 18.3903L13.3203 19.3356C13.9219 19.5075 14.3516 20.0231 14.4375 20.6247C11.4297 20.6247 8.85156 20.6247 8.59375 20.5388Z" fill="white"/>
<path d="M52.6797 8.59375L46.4922 5.67187C44.4297 4.72656 42.1953 4.38281 40.0469 4.8125L39.1016 2.92188C38.4141 1.20313 36.7812 0 34.8906 0H14.7813C12.8906 0 11.2578 1.11719 10.5703 2.83594L7.21875 9.79688C6.44531 8.67969 5.15625 7.99219 3.78125 7.99219H2.32031C1.03125 7.99219 0 9.02344 0 10.3125V11.2578C0 12.5469 1.03125 13.5781 2.32031 13.5781H4.55469C3.60938 14.7812 3.17969 16.3281 3.17969 17.875V23.0312C3.17969 25.0078 3.86719 26.8984 5.24219 28.5312V32.3984C5.24219 34.1172 6.61719 35.4922 8.33594 35.4922H11.5156C13.2344 35.4922 14.6094 34.1172 14.6094 32.3984V30.8516H31.7969C35.5781 36.0078 41.5078 38.2422 41.5938 38.2422C41.7656 38.3281 41.9375 38.3281 42.1953 38.2422C42.2812 38.1562 55 33.5156 55 21.9141V12.2891C55 10.7422 54.0547 9.28125 52.6797 8.59375ZM12.1172 3.52344C12.5469 2.40625 13.5781 1.71875 14.7813 1.71875H34.8906C36.0938 1.71875 37.125 2.40625 37.6406 3.60937L38.4141 5.24219C38.0703 5.32813 37.7266 5.5 37.3828 5.67187L31.1953 8.59375C29.8203 9.28125 28.875 10.6562 28.875 12.2031H7.82031C8.16406 11.6875 7.82031 12.5469 12.1172 3.52344ZM1.71875 11.2578V10.3125C1.71875 9.96875 1.97656 9.71094 2.32031 9.71094H3.78125C5.5 9.71094 6.10156 11.2578 6.27344 11.5156C6.1875 11.6875 6.10156 11.7734 5.92969 11.9453H2.32031C1.97656 11.8594 1.71875 11.6016 1.71875 11.2578ZM12.8906 32.3125C12.8906 33.0859 12.2891 33.6875 11.5156 33.6875H8.25C7.47656 33.7734 6.875 33.0859 6.875 32.3125V29.8203C7.90625 30.4219 9.10938 30.7656 10.3125 30.7656H12.8906V32.3125ZM10.2266 29.1328C7.13281 29.1328 4.72656 26.125 4.72656 22.9453V17.7891C4.72656 16.3281 5.32812 14.9531 6.35938 13.8359H28.875V21.3984H19.4219C18.9922 21.3984 18.5625 21.7422 18.5625 22.2578C18.5625 22.7734 18.9062 23.1172 19.4219 23.1172H28.9609C29.0469 23.7187 29.0469 24.2344 29.2188 24.75H19.4219C18.9922 24.75 18.5625 25.0938 18.5625 25.6094C18.5625 26.125 18.9062 26.4688 19.4219 26.4688H29.5625C29.9063 27.4141 30.25 28.3594 30.7656 29.1328H10.2266ZM53.2812 21.9141C53.2812 31.4531 43.6562 35.8359 41.9375 36.5234C35.75 34.0312 30.5937 28.7031 30.5937 21.9141V12.2891C30.5937 11.3438 31.1094 10.5703 31.9688 10.1406L38.1562 7.21875C40.6484 6.01563 43.3984 6.01563 45.8906 7.21875L52.0781 10.1406C52.8516 10.5703 53.4531 11.3438 53.4531 12.2891V21.9141H53.2812Z" fill="white"/>
<path d="M50.3594 12.1172L44.6875 9.45312C42.9687 8.59375 40.8203 8.59375 39.1016 9.45312L33.5156 12.1172C33.2578 12.2891 33 12.5469 33 12.8906V21.9141C33 28.7031 38.9297 32.3984 41.5078 33.6875C41.7656 33.7734 42.0234 33.7734 42.2812 33.6875C44.8594 32.3984 50.7891 28.7031 50.7891 21.9141V12.8906C50.7891 12.5469 50.6172 12.2891 50.3594 12.1172ZM49.1562 21.9141C49.1562 27.4141 44.3437 30.6797 41.9375 31.9688C39.1016 30.4219 34.7188 27.3281 34.7188 21.9141V13.4062L39.875 10.9141C41.1641 10.3125 42.7109 10.3125 44 10.9141L49.1562 13.4062V21.9141Z" fill="white"/>
<path d="M38.5858 21.6558C38.2421 21.398 37.7264 21.4839 37.3827 21.8276C37.0389 22.1714 37.2108 22.687 37.5546 23.0308L40.8202 25.523C41.1639 25.7808 41.6796 25.6948 42.0233 25.3511L46.8358 19.0776C47.0936 18.7339 47.0077 18.2183 46.6639 17.8745C46.3202 17.6167 45.8046 17.7026 45.4608 18.0464L41.1639 23.6323L38.5858 21.6558Z" fill="white"/>
</svg>
