<svg width="16" height="16" viewBox="0 0 16 16" fill="none" xmlns="http://www.w3.org/2000/svg">
<path d="M14.7164 10.5023C13.7368 10.5023 12.7749 10.3491 11.8634 10.0479C11.4168 9.89554 10.8678 10.0353 10.5952 10.3153L8.79611 11.6734C6.70971 10.5596 5.42453 9.27487 4.32601 7.20413L5.64415 5.45194C5.98662 5.10994 6.10945 4.61035 5.96228 4.14159C5.65978 3.22533 5.50611 2.26395 5.50611 1.28393C5.50615 0.575966 4.93019 0 4.22226 0H1.28389C0.575966 0 0 0.575966 0 1.28389C0 9.39858 6.60167 16.0002 14.7164 16.0002C15.4243 16.0002 16.0002 15.4242 16.0002 14.7163V11.7861C16.0002 11.0783 15.4242 10.5023 14.7164 10.5023Z" fill="#273E47"/>
</svg>
