<svg width="18" height="13" viewBox="0 0 18 13" fill="none" xmlns="http://www.w3.org/2000/svg">
<path d="M17.8414 0.904254L12.3824 6.32812L17.8414 11.752C17.9401 11.5457 18 11.3177 18 11.0742V1.58203C18 1.3385 17.9401 1.11052 17.8414 0.904254ZM16.418 0H1.58203C1.3385 0 1.11052 0.0598712 0.904254 0.158555L7.88147 7.10061C8.49839 7.71754 9.50161 7.71754 10.1185 7.10061L17.0957 0.158555C16.8895 0.0598712 16.6615 0 16.418 0ZM0.158555 0.904254C0.0598711 1.11052 0 1.3385 0 1.58203V11.0742C0 11.3177 0.0598711 11.5458 0.158555 11.752L5.61758 6.32812L0.158555 0.904254Z" fill="#273E47"/>
<path d="M11.6368 7.07385L10.8643 7.84634C9.83634 8.87427 8.16371 8.87427 7.13578 7.84634L6.36332 7.07385L0.904297 12.4977C1.11056 12.5964 1.33855 12.6563 1.58207 12.6563H16.418C16.6615 12.6563 16.8895 12.5964 17.0958 12.4977L11.6368 7.07385Z" fill="#273E47"/>
</svg>
