<svg width="15" height="18" viewBox="0 0 15 18" fill="none" xmlns="http://www.w3.org/2000/svg">
<path d="M6.97412 8.50006C8.09746 8.50006 9.07021 8.08121 9.86503 7.25486C10.6598 6.42868 11.0627 5.41777 11.0627 4.24991C11.0627 3.08239 10.6598 2.07138 9.86489 1.24489C9.06995 0.418811 8.09733 0 6.97412 0C5.85061 0 4.87809 0.418811 4.08331 1.24503C3.28853 2.07124 2.88547 3.08229 2.88547 4.24991C2.88547 5.41777 3.2885 6.42882 4.08344 7.25503C4.87839 8.08111 5.85101 8.50006 6.97412 8.50006ZM14.1281 13.5687C14.1052 13.2249 14.0588 12.8498 13.9905 12.4538C13.9216 12.0547 13.833 11.6775 13.7267 11.3327C13.6171 10.9764 13.4679 10.6245 13.2835 10.2872C13.092 9.93719 12.8672 9.63239 12.6149 9.38159C12.3511 9.11921 12.0281 8.90825 11.6546 8.75434C11.2824 8.60131 10.8699 8.52377 10.4287 8.52377C10.2554 8.52377 10.0878 8.59766 9.76414 8.81672C9.53408 8.97245 9.30333 9.12708 9.07191 9.28061C8.84954 9.42791 8.5483 9.5659 8.1762 9.69084C7.81319 9.81295 7.44462 9.87488 7.08081 9.87488C6.71704 9.87488 6.34856 9.81295 5.98515 9.69084C5.61349 9.56601 5.31225 9.42805 5.09011 9.28075C4.8325 9.10963 4.59943 8.95347 4.39725 8.81654C4.074 8.59752 3.90627 8.5236 3.733 8.5236C3.29162 8.5236 2.87927 8.60128 2.50718 8.75451C2.13393 8.90812 1.8108 9.11907 1.54673 9.38173C1.29459 9.63266 1.06963 9.93729 0.878465 10.2872C0.694192 10.6244 0.544997 10.9762 0.435156 11.3329C0.329062 11.6776 0.240373 12.0547 0.171478 12.4538C0.103213 12.8493 0.0568631 13.2245 0.0339202 13.5692C0.0110973 13.916 -0.000215111 14.2635 3.09709e-06 14.6111C3.09709e-06 15.5323 0.281684 16.278 0.837154 16.8279C1.38576 17.3706 2.11165 17.6459 2.99439 17.6459H11.168C12.0508 17.6459 12.7764 17.3707 13.3251 16.8279C13.8807 16.2784 14.1624 15.5326 14.1624 14.611C14.1623 14.2555 14.1508 13.9048 14.1281 13.5687Z" fill="#273E47"/>
</svg>
